<svg width="50" height="50" fill="none" xmlns="http://www.w3.org/2000/svg"><path d="M24.97 0c3.465 0 6.71.657 9.737 1.971 3.027 1.315 5.675 3.097 7.945 5.347 2.27 2.25 4.063 4.888 5.377 7.915S50 21.505 50 24.97s-.657 6.71-1.971 9.737c-1.315 3.027-3.107 5.675-5.377 7.945-2.27 2.27-4.918 4.063-7.945 5.377C31.681 49.343 28.435 50 24.97 50s-6.71-.657-9.737-1.971c-3.027-1.315-5.665-3.107-7.915-5.377-2.25-2.27-4.032-4.918-5.347-7.945C.657 31.681 0 28.435 0 24.97s.657-6.71 1.971-9.737c1.315-3.027 3.097-5.665 5.347-7.915 2.25-2.25 4.888-4.032 7.915-5.347C18.26.657 21.505 0 24.97 0Zm0 39.068c1.952 0 3.784-.368 5.496-1.105a14.21 14.21 0 0 0 4.48-3.017 14.21 14.21 0 0 0 3.017-4.48c.737-1.713 1.105-3.544 1.105-5.496 0-1.951-.368-3.773-1.105-5.466a14.304 14.304 0 0 0-3.017-4.45 14.21 14.21 0 0 0-4.48-3.017c-1.713-.737-3.544-1.105-5.496-1.105a13.61 13.61 0 0 0-5.436 1.105 14.21 14.21 0 0 0-4.48 3.017 14.304 14.304 0 0 0-3.017 4.45c-.737 1.693-1.105 3.515-1.105 5.466 0 1.952.368 3.784 1.105 5.496a14.21 14.21 0 0 0 3.017 4.48 14.21 14.21 0 0 0 4.48 3.017 13.61 13.61 0 0 0 5.436 1.105Zm1.195-13.68a18.618 18.618 0 0 0-5.526 2.927 19.22 19.22 0 0 0-4.271 4.6c-1.872-2.07-2.907-4.54-3.106-7.407.318.04.607.06.866.06h.806c3.664 0 7.169-.618 10.514-1.852l.358.836.359.836Zm1.493-2.568a28.735 28.735 0 0 0 6.99-4.421c1.354 1.951 2.03 4.122 2.03 6.511a19.151 19.151 0 0 0-4.42-.537c-1.314 0-2.589.14-3.823.418-.12-.319-.24-.647-.358-.986a8.606 8.606 0 0 0-.419-.985ZM18.16 34.528a16.043 16.043 0 0 1 3.823-4.271 16.583 16.583 0 0 1 4.959-2.658 36.265 36.265 0 0 1 1.075 4.151c.279 1.414.498 2.858.657 4.331-1.155.398-2.39.598-3.704.598-2.509 0-4.779-.717-6.81-2.15Zm11.052-7.527c1.115-.199 2.13-.299 3.046-.299 1.474 0 2.867.2 4.182.598a11.503 11.503 0 0 1-1.912 4.48 11.317 11.317 0 0 1-3.584 3.286A38.39 38.39 0 0 0 29.212 27Zm3.942-10.394a37.484 37.484 0 0 1-3.166 2.3 24.785 24.785 0 0 1-3.345 1.822 51.178 51.178 0 0 0-2.18-3.614 41.232 41.232 0 0 0-2.54-3.435 10.83 10.83 0 0 1 3.047-.418c1.553 0 3.027.288 4.42.866a12.005 12.005 0 0 1 3.764 2.479Zm-8.722 5.018a28.502 28.502 0 0 1-9.498 1.613h-.806l-.687-.06a11.548 11.548 0 0 1 2.03-5.018 11.558 11.558 0 0 1 4.123-3.584 37.477 37.477 0 0 1 4.838 7.049Z" fill="#fff"/></svg>