<svg width="50" height="50" fill="none" xmlns="http://www.w3.org/2000/svg"><path d="M24.97 0c3.465 0 6.71.657 9.737 1.971 3.027 1.315 5.675 3.097 7.945 5.347 2.27 2.25 4.063 4.888 5.377 7.915S50 21.505 50 24.97s-.657 6.71-1.971 9.737c-1.315 3.027-3.107 5.675-5.377 7.945-2.27 2.27-4.918 4.063-7.945 5.377C31.681 49.343 28.435 50 24.97 50s-6.71-.657-9.737-1.971c-3.027-1.315-5.665-3.107-7.915-5.377-2.25-2.27-4.032-4.918-5.347-7.945C.657 31.681 0 28.435 0 24.97s.657-6.71 1.971-9.737c1.315-3.027 3.097-5.665 5.347-7.915 2.25-2.25 4.888-4.032 7.915-5.347C18.26.657 21.505 0 24.97 0Zm-7.766 18.758h-6.272v20.31h6.272v-20.31Zm-3.166-1.613c.876 0 1.623-.3 2.24-.896.618-.598.926-1.335.926-2.21 0-.877-.308-1.614-.926-2.211-.617-.597-1.364-.896-2.24-.896-.876 0-1.613.299-2.21.896s-.896 1.334-.896 2.21c0 .876.299 1.613.896 2.21.597.598 1.334.897 2.21.897ZM39.068 27.3c0-1.434-.398-2.838-1.195-4.212-.796-1.373-1.832-2.419-3.106-3.136-1.155-.637-2.499-.976-4.032-1.015-1.534-.04-2.937.219-4.212.776v-.956h-6.212v20.311h6.212V26.643l2.629-1.255c.318-.159.746-.239 1.284-.239s.966.1 1.284.299c.24.12.478.378.717.777.24.398.359.756.359 1.075v11.768h6.272V27.3Z" fill="#fff"/></svg>