<svg width="50" height="50" fill="none" xmlns="http://www.w3.org/2000/svg"><path d="M24.97 0c3.465 0 6.71.657 9.737 1.971 3.027 1.315 5.675 3.097 7.945 5.347 2.27 2.25 4.063 4.888 5.377 7.915S50 21.505 50 24.97s-.657 6.71-1.971 9.737c-1.315 3.027-3.107 5.675-5.377 7.945-2.27 2.27-4.918 4.063-7.945 5.377C31.681 49.343 28.435 50 24.97 50s-6.71-.657-9.737-1.971c-3.027-1.315-5.665-3.107-7.915-5.377-2.25-2.27-4.032-4.918-5.347-7.945C.657 31.681 0 28.435 0 24.97s.657-6.71 1.971-9.737c1.315-3.027 3.097-5.665 5.347-7.915 2.25-2.25 4.888-4.032 7.915-5.347C18.26.657 21.505 0 24.97 0Zm12.425 19.594a14.405 14.405 0 0 0 3.047-3.166 12.819 12.819 0 0 1-3.525.956 6.912 6.912 0 0 0 1.673-1.464 5.262 5.262 0 0 0 1.016-1.882c-.598.319-1.215.608-1.852.866a9.703 9.703 0 0 1-1.971.568 6.994 6.994 0 0 0-1.972-1.374c-.756-.359-1.593-.538-2.509-.538a5.88 5.88 0 0 0-2.36.478 5.85 5.85 0 0 0-1.91 1.314 6.467 6.467 0 0 0-1.285 1.942 5.88 5.88 0 0 0-.478 2.36c0 .238.01.477.03.716.02.24.05.458.09.657-2.51-.119-4.84-.736-6.99-1.851a17.13 17.13 0 0 1-5.496-4.48c-.557.915-.836 1.93-.836 3.046a5.87 5.87 0 0 0 .747 2.897 6.423 6.423 0 0 0 1.941 2.18c-1.035-.08-1.951-.338-2.748-.776v.06c0 1.513.468 2.817 1.404 3.912.936 1.096 2.1 1.783 3.495 2.061-.28.08-.548.14-.807.18a5.303 5.303 0 0 1-1.374.03 6.609 6.609 0 0 1-.567-.09 6.232 6.232 0 0 0 2.12 2.987c1.016.796 2.2 1.194 3.555 1.194a11.754 11.754 0 0 1-3.495 1.942 11.999 11.999 0 0 1-4.032.687 8.815 8.815 0 0 1-1.493-.12 17.292 17.292 0 0 0 4.39 2.032 16.86 16.86 0 0 0 4.928.716c2.788 0 5.257-.527 7.408-1.583 2.15-1.055 3.952-2.409 5.406-4.062a17.535 17.535 0 0 0 3.316-5.555c.756-2.051 1.134-4.072 1.134-6.064v-.776Z" fill="#fff"/></svg>