<svg width="166" height="71" fill="none" xmlns="http://www.w3.org/2000/svg"><rect x=".986" y=".412" width="164.097" height="70" rx="35" fill="#fff"/><path d="M40.986 39.426h2.518v12.348h-2.518V39.426Zm3.978 8.117a4.483 4.483 0 1 1 4.483 4.474 4.43 4.43 0 0 1-4.483-4.474Zm6.43 0a1.946 1.946 0 1 0-1.947 1.998 1.895 1.895 0 0 0 1.947-1.998Z" fill="#252525"/><path d="M64.052 43.313v8.041c0 2.846-2.225 4.046-4.474 4.046a4.323 4.323 0 0 1-4.004-2.048l2.166-1.25a1.93 1.93 0 0 0 1.888 1.065 1.678 1.678 0 0 0 1.948-1.813v-.78a2.988 2.988 0 0 1-2.468 1.1 4.298 4.298 0 0 1 0-8.596 3.014 3.014 0 0 1 2.468 1.1v-.84l2.476-.025Zm-2.476 4.062a2.05 2.05 0 1 0-2.048 1.965 1.913 1.913 0 0 0 2.048-1.965Zm3.928.168a4.482 4.482 0 1 1 4.482 4.474 4.43 4.43 0 0 1-4.482-4.474Zm6.43 0a1.947 1.947 0 1 0-1.948 1.998 1.898 1.898 0 0 0 1.931-1.998h.017Zm3.701-6.497a1.528 1.528 0 1 1 1.528 1.528 1.536 1.536 0 0 1-1.528-1.528Zm.26 2.267h2.519v8.46h-2.518v-8.46Zm13.498 4.23a4.25 4.25 0 0 1-4.038 4.474 3.215 3.215 0 0 1-2.518-1.032v4.197H80.32v-11.87h2.518v.798a3.216 3.216 0 0 1 2.518-1.032 4.246 4.246 0 0 1 4.038 4.465Zm-2.518 0a2.014 2.014 0 1 0-2.065 2.065 1.93 1.93 0 0 0 2.048-2.065h.017Zm10.358 1.696c0 1.947-1.679 2.778-3.526 2.778a3.71 3.71 0 0 1-3.634-2.014l2.2-1.251a1.393 1.393 0 0 0 1.434.999c.613 0 .915-.193.915-.529 0-.932-4.197-.436-4.197-3.357 0-1.847 1.562-2.779 3.358-2.779A3.718 3.718 0 0 1 97.09 44.9l-2.207 1.159a1.251 1.251 0 0 0-1.142-.748c-.436 0-.705.168-.705.479.034.965 4.197.319 4.197 3.45Zm9.266-5.926v8.46h-2.518v-.788a2.9 2.9 0 0 1-2.417 1.032c-1.68 0-3.165-1.217-3.165-3.508v-5.196h2.518v4.826a1.399 1.399 0 0 0 .395 1.13 1.39 1.39 0 0 0 1.125.407c.923 0 1.569-.538 1.569-1.738v-4.625h2.493Zm14.555 3.273v5.188h-2.518v-4.97c0-.839-.411-1.393-1.217-1.393s-1.326.596-1.326 1.595v4.767h-2.518v-4.969c0-.839-.403-1.393-1.217-1.393-.815 0-1.318.596-1.318 1.595v4.767h-2.518v-8.46h2.518v.78a2.598 2.598 0 0 1 2.266-1.015 2.518 2.518 0 0 1 2.216 1.116 2.785 2.785 0 0 1 2.451-1.116c1.914 0 3.181 1.393 3.181 3.508Zm2.149-3.323a1.88 1.88 0 1 0 0-3.76 1.88 1.88 0 0 0 0 3.76Zm-53.72-10.241a8.805 8.805 0 1 0 0-17.61 8.805 8.805 0 0 0 0 17.61Zm19.683 0a8.805 8.805 0 1 0 0-17.61 8.805 8.805 0 0 0 0 17.61Zm-30.561-17.61H41.002v17.602h17.602V15.412Z" fill="#252525"/></svg>