<svg width="184" height="70" fill="none" xmlns="http://www.w3.org/2000/svg"><rect x=".221" width="183.696" height="70" rx="35" fill="#fff"/><path d="M87.835 50.238h2.735V39.924h-2.735v10.314Zm0-11.923h2.735v-2.453h-2.735v2.453Zm4.497 15.301h2.734v-4.544h.04c.584.885 1.529 1.468 2.976 1.468 2.654 0 4.464-2.111 4.464-5.449 0-3.217-1.749-5.449-4.484-5.449-1.407 0-2.372.664-3.036 1.569h-.06v-1.287h-2.634v13.692Zm5.167-5.348c-1.628 0-2.493-1.227-2.493-3.097 0-1.85.684-3.317 2.393-3.317 1.689 0 2.372 1.367 2.372 3.317 0 1.95-.884 3.097-2.272 3.097ZM108 50.54c2.574 0 4.343-1.247 4.343-3.318 0-2.413-1.91-2.895-3.639-3.257-1.468-.302-2.835-.382-2.835-1.267 0-.743.704-1.146 1.769-1.146 1.167 0 1.87.403 1.991 1.508h2.473c-.201-2.07-1.709-3.418-4.423-3.418-2.353 0-4.203 1.066-4.203 3.298 0 2.252 1.81 2.754 3.66 3.116 1.407.282 2.714.382 2.714 1.367 0 .724-.684 1.186-1.89 1.186-1.226 0-2.071-.522-2.252-1.709h-2.533c.161 2.192 1.83 3.64 4.825 3.64Zm14.725-.302V39.924h-2.735v5.951c0 1.367-.784 2.332-2.071 2.332-1.166 0-1.709-.663-1.709-1.87v-6.413h-2.714V46.8c0 2.252 1.287 3.72 3.579 3.72 1.448 0 2.252-.543 2.956-1.488h.06v1.206h2.634Zm1.769 0h2.734v-5.992c0-1.367.744-2.251 1.85-2.251 1.005 0 1.588.603 1.588 1.769v6.474h2.735v-5.992c0-1.367.703-2.251 1.849-2.251 1.006 0 1.589.603 1.589 1.769v6.474h2.734v-6.936c0-2.252-1.226-3.66-3.398-3.66-1.307 0-2.392.684-3.096 1.81h-.04c-.503-1.086-1.548-1.81-2.855-1.81-1.428 0-2.433.724-2.996 1.67h-.06v-1.388h-2.634v10.314ZM87.876 32.572h2.734V18.196h-2.734v14.376Zm9.42.302c3.197 0 5.389-2.373 5.389-5.449 0-3.076-2.192-5.449-5.389-5.449s-5.388 2.373-5.388 5.449c0 3.076 2.191 5.449 5.388 5.449Zm0-2.091c-1.689 0-2.614-1.347-2.614-3.358 0-2.01.925-3.378 2.614-3.378 1.669 0 2.614 1.367 2.614 3.378 0 2.01-.945 3.358-2.614 3.358ZM108.5 36.09c1.528 0 2.855-.361 3.719-1.166.764-.703 1.227-1.688 1.227-3.136v-9.53h-2.634v1.085h-.04c-.624-.864-1.569-1.367-2.855-1.367-2.614 0-4.464 1.97-4.464 5.047 0 3.116 2.252 4.926 4.544 4.926 1.307 0 2.091-.523 2.694-1.207h.061v1.126c0 1.408-.744 2.152-2.292 2.152-1.267 0-1.85-.503-2.071-1.146h-2.715c.282 2.01 2.011 3.217 4.826 3.217Zm-.04-6.333c-1.408 0-2.333-1.025-2.333-2.774 0-1.73.925-2.815 2.312-2.815 1.649 0 2.453 1.287 2.453 2.795 0 1.528-.703 2.794-2.432 2.794Zm11.632 3.117c3.197 0 5.388-2.373 5.388-5.449 0-3.076-2.191-5.449-5.388-5.449s-5.388 2.373-5.388 5.449c0 3.076 2.191 5.449 5.388 5.449Zm0-2.091c-1.689 0-2.614-1.347-2.614-3.358 0-2.01.925-3.378 2.614-3.378 1.669 0 2.614 1.367 2.614 3.378 0 2.01-.945 3.358-2.614 3.358Zm7.785-2.152H139.7V26.28h-11.823v2.352Zm12.689 9.541c0-.463.375-.838.838-.838h1.675a.838.838 0 1 1 0 1.675h-1.675a.838.838 0 0 1-.838-.837Z" fill="#252525"/><path fill-rule="evenodd" clip-rule="evenodd" d="M60.221 15c11.046 0 20 8.954 20 20s-8.954 20-20 20c-11.045 0-20-8.954-20-20s8.955-20 20-20Zm-.723 1.497c-2.281.32-4.454 2.154-6.14 5.22-.49.89-.931 1.873-1.316 2.933 2.294-.576 4.813-.916 7.456-.968v-7.185Zm-9.146 8.634a23.09 23.09 0 0 1 1.739-4.11c.836-1.52 1.828-2.833 2.946-3.841A18.593 18.593 0 0 0 42.4 29.816c1.008-1.118 2.32-2.11 3.84-2.946a23.09 23.09 0 0 1 4.111-1.74Zm-.48 1.69c-.577 2.293-.916 4.812-.969 7.456h-7.185c.32-2.282 2.154-4.454 5.22-6.14.89-.49 1.873-.931 2.934-1.316Zm.477 7.456c.06-2.885.475-5.594 1.162-7.987 2.394-.687 5.102-1.102 7.987-1.162v3.123a10.64 10.64 0 0 1-6.027 6.026H50.35Zm-1.446 1.446h-7.185c.32 2.282 2.154 4.454 5.22 6.14.89.49 1.873.931 2.934 1.316-.577-2.293-.916-4.812-.969-7.456Zm2.608 7.987c-.687-2.393-1.102-5.102-1.162-7.987h3.122a10.64 10.64 0 0 1 6.027 6.026v3.123c-2.885-.06-5.593-.475-7.987-1.162Zm-1.159 1.16a23.09 23.09 0 0 1-4.11-1.74c-1.52-.836-2.833-1.828-3.841-2.946A18.593 18.593 0 0 0 55.037 52.82c-1.118-1.008-2.11-2.32-2.946-3.84a23.086 23.086 0 0 1-1.739-4.11Zm9.146 8.633c-2.281-.32-4.454-2.154-6.14-5.22-.49-.89-.931-1.873-1.316-2.933 2.294.576 4.813.916 7.456.968v7.185Zm5.908-.683c1.117-1.008 2.11-2.32 2.946-3.84a23.093 23.093 0 0 0 1.738-4.11 23.09 23.09 0 0 0 4.11-1.74c1.52-.836 2.833-1.828 3.841-2.946A18.593 18.593 0 0 1 65.406 52.82Zm2.994-7.47a20.824 20.824 0 0 1-1.315 2.933c-1.687 3.066-3.86 4.9-6.14 5.22v-7.185c2.643-.052 5.162-.392 7.455-.968Zm2.17-2.171a20.824 20.824 0 0 0 2.934-1.315c3.066-1.687 4.9-3.86 5.22-6.141H71.54c-.052 2.644-.392 5.163-.968 7.456Zm-.477-7.456c-.06 2.885-.475 5.594-1.162 7.987-2.393.687-5.102 1.102-7.987 1.162v-3.12a10.64 10.64 0 0 1 6.028-6.03h3.121Zm1.446-1.446h7.186c-.322-2.282-2.155-4.454-5.221-6.14-.89-.49-1.872-.931-2.933-1.316.576 2.293.916 4.812.968 7.456Zm-2.608-7.987c.687 2.393 1.103 5.102 1.162 7.987h-3.121a10.64 10.64 0 0 1-6.028-6.029v-3.12c2.885.06 5.594.475 7.987 1.162Zm1.16-1.16a23.09 23.09 0 0 1 4.11 1.74c1.52.836 2.832 1.828 3.84 2.946A18.593 18.593 0 0 0 65.406 17.18c1.117 1.008 2.11 2.32 2.946 3.84a23.097 23.097 0 0 1 1.738 4.11Zm-9.147-8.633c2.282.32 4.454 2.154 6.14 5.22.49.89.931 1.873 1.316 2.933-2.293-.576-4.812-.916-7.456-.968v-7.185Z" fill="#252525"/></svg>