<svg width="233" height="71" fill="none" xmlns="http://www.w3.org/2000/svg"><rect x=".636" y=".412" width="231.861" height="70" rx="35" fill="#fff"/><path d="M40.636 52.512h34.2v-34.2h-34.2v34.2Zm27.617-20.39h-7.227v-7.228h7.227v7.227Zm-21.036-7.228h7.23v13.808h13.806v7.227H47.217V24.894Zm49.89-6.582a17.1 17.1 0 1 0 17.099 17.1 17.117 17.117 0 0 0-17.1-17.1Zm0 27.617a10.517 10.517 0 1 1 10.517-10.517 10.534 10.534 0 0 1-10.518 10.517Zm78.291-27.617a17.097 17.097 0 0 0-16.772 20.435 17.097 17.097 0 0 0 23.315 12.463 17.095 17.095 0 0 0 7.673-6.298 17.094 17.094 0 0 0 2.883-9.5 17.12 17.12 0 0 0-17.099-17.1Zm0 27.617a10.517 10.517 0 1 1 10.516-10.517 10.531 10.531 0 0 1-10.516 10.517Zm-39.146-27.617a17.1 17.1 0 1 0 17.1 17.1 17.122 17.122 0 0 0-17.1-17.1Zm0 27.617a10.516 10.516 0 1 1 9.984-13.808h-9.984v6.581h9.984a10.537 10.537 0 0 1-9.984 7.227Z" fill="#252525"/></svg>