<svg width="262" height="70" fill="none" xmlns="http://www.w3.org/2000/svg"><rect x=".569" width="260.861" height="70" rx="35" fill="#fff"/><path d="M67.701 32.827a4.874 4.874 0 0 0-1.394 3.905l-.024-.024a5.791 5.791 0 0 1-6.259 6.259l.024.023a4.905 4.905 0 0 0-3.92 8.353 4.904 4.904 0 0 0 8.348-3.929l.025.024a5.793 5.793 0 0 1 6.259-6.258l-.025-.024a4.896 4.896 0 0 0 5.038-6.548 4.894 4.894 0 0 0-8.068-1.781h-.004Z" fill="#252525"/><path d="m57.865 39.847-.025-.024a4.842 4.842 0 0 0 5.303-5.3l.025.025a5.793 5.793 0 0 1 6.259-6.259l-.026-.024a4.903 4.903 0 1 0-4.423-4.424l-.024-.025a5.792 5.792 0 0 1-6.26 6.259l.025.025a4.843 4.843 0 0 0-5.303 5.299l-.024-.024a5.795 5.795 0 0 1-6.259 6.258l.024.024a4.903 4.903 0 1 0 4.425 4.424l.025.024a5.792 5.792 0 0 1 6.258-6.258Z" fill="#252525"/><path d="M48.93 37.17a4.869 4.869 0 0 0 1.392-3.905l.026.024a5.791 5.791 0 0 1 6.261-6.258l-.025-.024a4.903 4.903 0 1 0-4.424-4.424l-.024-.024a5.791 5.791 0 0 1-6.259 6.258l.024.024a4.895 4.895 0 1 0 3.03 8.33h-.002Zm41.302-13.298h3.96v19.27h-3.96v-19.27Zm6.203 12.672a6.997 6.997 0 1 1 6.996 6.968 6.913 6.913 0 0 1-6.477-4.287 6.915 6.915 0 0 1-.52-2.681Zm10.032 0a3.04 3.04 0 0 0-3.68-2.884 3.04 3.04 0 0 0-2.341 2.406 3.031 3.031 0 0 0 2.985 3.599 2.967 2.967 0 0 0 2.202-.895 2.971 2.971 0 0 0 .834-2.226Zm19.742-6.6v12.533c0 4.435-3.458 6.31-6.969 6.31a6.747 6.747 0 0 1-6.256-3.2l3.379-1.954a3.01 3.01 0 0 0 3.009 1.663 2.63 2.63 0 0 0 2.983-2.824v-1.207a4.688 4.688 0 0 1-3.855 1.716 6.706 6.706 0 0 1-6.497-6.705 6.706 6.706 0 0 1 6.497-6.704 4.686 4.686 0 0 1 3.855 1.716V29.94l3.854.003Zm-3.853 6.334a3.2 3.2 0 1 0-3.193 3.067 2.98 2.98 0 0 0 2.276-.825 2.987 2.987 0 0 0 .917-2.242Zm6.096.266a6.995 6.995 0 0 1 13.855-1.403 6.998 6.998 0 0 1-6.859 8.371 6.913 6.913 0 0 1-6.477-4.287 6.922 6.922 0 0 1-.519-2.681Zm10.032 0a3.04 3.04 0 0 0-5.214-2.034 3.036 3.036 0 0 0 .499 4.65 3.04 3.04 0 0 0 1.679.505 2.964 2.964 0 0 0 3.036-3.121Zm5.807-10.137a2.376 2.376 0 1 1 2.376 2.375 2.401 2.401 0 0 1-2.376-2.375Zm.4 3.537h3.961v13.2h-3.967l.006-13.2Zm21.06 6.6a6.639 6.639 0 0 1-3.791 6.342 6.629 6.629 0 0 1-2.519.626 4.952 4.952 0 0 1-3.932-1.61v6.52h-3.96V29.944h3.96v1.24a4.956 4.956 0 0 1 3.932-1.61 6.635 6.635 0 0 1 4.605 2.173 6.623 6.623 0 0 1 1.705 4.797Zm-3.96 0a3.143 3.143 0 0 0-6.227-.505 3.14 3.14 0 0 0 3.087 3.725 3.009 3.009 0 0 0 2.291-.907 3.018 3.018 0 0 0 .849-2.313Zm16.18 2.638c0 3.036-2.639 4.33-5.49 4.33a5.779 5.779 0 0 1-5.676-3.142l3.431-1.953a2.172 2.172 0 0 0 2.24 1.557c.949 0 1.425-.29 1.425-.817 0-1.453-6.494-.687-6.494-5.253 0-2.879 2.429-4.33 5.174-4.33a5.773 5.773 0 0 1 5.147 2.824l-3.379 1.822a1.91 1.91 0 0 0-1.768-1.162c-.686 0-1.109.267-1.109.74.005 1.504 6.499.5 6.499 5.384Zm14.465-9.238v13.2h-3.96v-1.241a4.523 4.523 0 0 1-3.774 1.61c-2.666 0-4.933-1.9-4.933-5.466v-8.103h3.96v7.523a2.18 2.18 0 0 0 1.371 2.254c.293.115.609.165.925.146 1.452 0 2.455-.844 2.455-2.72v-7.2l3.956-.003Zm22.706 5.094v8.105h-3.96V35.38c0-1.32-.633-2.164-1.9-2.164-1.32 0-2.06.924-2.06 2.482v7.444h-3.958V35.38c0-1.32-.634-2.164-1.902-2.164-1.32 0-2.058.924-2.058 2.482v7.444h-3.96v-13.2h3.96v1.213a4.052 4.052 0 0 1 3.537-1.583 3.932 3.932 0 0 1 3.457 1.741 4.347 4.347 0 0 1 3.828-1.74c3.031 0 5.016 2.164 5.016 5.464Zm3.35-5.176a2.939 2.939 0 1 0 0-5.877 2.939 2.939 0 0 0 0 5.877Z" fill="#252525"/></svg>