<svg width="230" height="70" fill="none" xmlns="http://www.w3.org/2000/svg"><rect x=".009" width="229.983" height="70" rx="35" fill="#fff"/><path fill-rule="evenodd" clip-rule="evenodd" d="m59.564 17.177-.022-.037h-8.94L40.008 35.298l7.27 12.722.01-.015 2.748 4.761 21.022.094 7.382-12.658h-.049l2.727-4.724L70.69 17.226l-11.126-.049Zm6.916 12.11h.056l-5.256-9.129 7.68.034 8.73 15.279-2.732 4.733-7.161.004 2.496-4.325-3.813-6.596Zm-8.737-9.174 3.584 6.2h-4.962L47.87 41.045l-.58 1.001-3.848-6.733 8.867-15.2h5.434Zm-3.446 15.738 3.785-6.564h4.964l3.813 6.597-2.497 4.326-7.546.004-2.519-4.363Zm-5.293 9.179 1.44-2.498 2.142-3.698 2.514 4.354 7.545-.004-.013.021 10.608.013-3.884 6.661-17.597-.079-2.755-4.77Z" fill="#252525"/><path d="M135.273 28.021a1.851 1.851 0 0 0 1.846-1.867 1.833 1.833 0 0 0-1.846-1.845c-1.039 0-1.866.806-1.866 1.845 0 1.04.827 1.867 1.866 1.867Zm-1.654 12.26h3.288V29.677h-3.288v10.606Zm5.202 5.092h3.224V39.22c.615.806 2.015 1.358 3.479 1.358 3.16 0 5.07-2.419 4.985-5.77-.085-3.415-2.058-5.473-5.006-5.473-1.506 0-2.928.658-3.522 1.633l-.169-1.294h-2.991v15.698Zm3.288-10.395c0-1.59 1.06-2.65 2.588-2.65 1.548 0 2.524 1.08 2.524 2.65 0 1.57-.976 2.652-2.524 2.652-1.528 0-2.588-1.06-2.588-2.652Zm8.748 1.952c.084 2.142 1.782 3.627 4.454 3.627 2.567 0 4.349-1.357 4.349-3.542 0-1.57-.933-2.61-2.673-3.034l-1.888-.466c-.679-.17-1.103-.34-1.103-.891 0-.552.445-.912 1.103-.912.742 0 1.23.488 1.209 1.209h2.949c-.085-2.206-1.761-3.585-4.095-3.585-2.354 0-4.114 1.4-4.114 3.521 0 1.422.784 2.588 2.884 3.14l1.867.488c.551.148.785.403.785.763 0 .53-.488.87-1.315.87-.954 0-1.463-.446-1.463-1.188h-2.949Zm13.803 3.627c1.294 0 2.588-.593 3.246-1.463l.212 1.188h3.075V29.676h-3.266v5.515c0 1.59-.467 2.46-1.973 2.46-1.167 0-1.93-.53-1.93-2.503v-5.472h-3.267v6.66c0 2.525 1.4 4.221 3.903 4.221Zm11.714-.275V34.49c0-1.782.954-2.291 1.887-2.291 1.04 0 1.719.636 1.719 1.951v6.13h3.224v-5.79c0-1.803.933-2.313 1.866-2.313 1.04 0 1.74.637 1.74 1.973v6.13h3.181v-6.936c0-2.418-1.272-4.03-4.008-4.03-1.527 0-2.779.742-3.33 1.888-.637-1.146-1.739-1.888-3.5-1.888-1.167 0-2.249.53-2.885 1.379l-.128-1.018h-3.054v10.606h3.288ZM90.472 24.586h-3.48v15.697h9.631v-3.075h-6.151V24.586Zm6.484 10.374c0 3.35 2.248 5.578 5.642 5.578 3.373 0 5.621-2.227 5.621-5.579 0-3.351-2.248-5.6-5.621-5.6-3.394 0-5.642 2.249-5.642 5.6Zm3.287-.022c0-1.591.934-2.652 2.355-2.652 1.4 0 2.333 1.06 2.333 2.652 0 1.612-.933 2.673-2.333 2.673-1.421 0-2.355-1.061-2.355-2.673Zm8.501-.148c0 3.202 2.079 5.366 5.028 5.366 1.421 0 2.651-.51 3.266-1.337v1.464c0 1.464-.912 2.44-2.524 2.44-1.442 0-2.439-.68-2.503-1.888h-3.309c.297 2.906 2.546 4.857 5.621 4.857 3.628 0 5.918-2.354 5.918-6.088v-9.927h-2.948l-.17 1.082c-.594-.87-1.845-1.442-3.288-1.442-2.969 0-5.091 2.227-5.091 5.472Zm3.31-.086c0-1.527 1.018-2.545 2.312-2.545 1.506 0 2.609.997 2.609 2.545 0 1.549-1.082 2.61-2.588 2.61-1.294 0-2.333-1.061-2.333-2.61Zm9.14.256c0 3.35 2.248 5.578 5.642 5.578 3.373 0 5.622-2.227 5.622-5.579 0-3.351-2.249-5.6-5.622-5.6-3.394 0-5.642 2.249-5.642 5.6Zm3.288-.022c0-1.591.933-2.652 2.354-2.652 1.4 0 2.334 1.06 2.334 2.652 0 1.612-.934 2.673-2.334 2.673-1.421 0-2.354-1.061-2.354-2.673Z" fill="#252525"/></svg>